PathFileType	4	(X/Y/Z)	 0.16m3min.trc
DataRate	CameraRate	NumFrames	NumMarkers	Units	OrigDataRate	OrigDataStartFrame	OrigNumFrames
200	200	7	35	m	200	1	1000
Frame#	Time	C7			LSH			RSH			MAN			RASI			LASI			HIPR			HIPL			RPSI			LPSI			COX			RTHI1			RTHI2			RTHI3			RTHI4			RSHA1			RSHA2			RSHA3			RSHA4			RHEEL			RMET5			RMET1			RTOE			LTHI1			LTHI2			LTHI3			LTHI4			LSHA1			LSHA2			LSHA3			LSHA4			LHEEL			LMET5			LMET1			LTOE			
		X1	Y1	Z1	X2	Y2	Z2	X3	Y3	Z3	X4	Y4	Z4	X5	Y5	Z5	X6	Y6	Z6	X7	Y7	Z7	X8	Y8	Z8	X9	Y9	Z9	X10	Y10	Z10	X11	Y11	Z11	X12	Y12	Z12	X13	Y13	Z13	X14	Y14	Z14	X15	Y15	Z15	X16	Y16	Z16	X17	Y17	Z17	X18	Y18	Z18	X19	Y19	Z19	X20	Y20	Z20	X21	Y21	Z21	X22	Y22	Z22	X23	Y23	Z23	X24	Y24	Z24	X25	Y25	Z25	X26	Y26	Z26	X27	Y27	Z27	X28	Y28	Z28	X29	Y29	Z29	X30	Y30	Z30	X31	Y31	Z31	X32	Y32	Z32	X33	Y33	Z33	X34	Y34	Z34	X35	Y35	Z35	
1	0.0050	-0.000000	0.000000	-0.000000	-0.290426	1.383870	-0.703768	-0.298483	1.357927	-0.360197	-0.225852	1.337254	-0.533117	-0.219788	0.935969	-0.419160	-0.221151	0.939650	-0.652990	-0.274022	0.982256	-0.393117	-0.278749	0.983826	-0.676181	-0.382871	0.968016	-0.475256	-0.381689	0.971128	-0.589394	-0.387288	0.973626	-0.531337	-0.307082	0.727723	-0.374104	-0.278407	0.674483	-0.372388	-0.219966	0.700830	-0.364571	-0.240401	0.758824	-0.365291	-0.317943	0.335106	-0.375498	-0.338420	0.298450	-0.386074	-0.282511	0.277322	-0.394670	-0.266078	0.313947	-0.388535	-0.447954	0.119441	-0.437305	-0.310909	0.032305	-0.392113	-0.289398	0.036974	-0.461582	-0.262552	0.027588	-0.459251	-0.292096	0.745667	-0.710180	-0.269689	0.688295	-0.707216	-0.207975	0.706994	-0.697915	-0.222931	0.764779	-0.700670	-0.336463	0.338445	-0.691848	-0.358477	0.304859	-0.688489	-0.302448	0.277603	-0.679336	-0.286949	0.318718	-0.684601	-0.476251	0.106836	-0.631092	-0.341491	0.035427	-0.685781	-0.304064	0.035973	-0.620358	-0.280429	0.027510	-0.624125	
2	0.0100	-0.000000	0.000000	-0.000000	-0.291043	1.392936	-0.703508	-0.299411	1.367482	-0.360629	-0.226518	1.346625	-0.533265	-0.218395	0.944897	-0.419678	-0.219809	0.948592	-0.652792	-0.272011	0.991467	-0.393243	-0.277030	0.992972	-0.676036	-0.381050	0.977107	-0.475170	-0.380075	0.980241	-0.589464	-0.385615	0.982525	-0.531393	-0.307248	0.736528	-0.373923	-0.279134	0.683161	-0.371890	-0.220497	0.708965	-0.364069	-0.240389	0.767128	-0.365030	-0.319015	0.341391	-0.374226	-0.338958	0.304390	-0.384717	-0.282581	0.284068	-0.393070	-0.266702	0.321007	-0.387182	-0.444369	0.124408	-0.436627	-0.309887	0.032749	-0.392147	-0.288954	0.036973	-0.461522	-0.262799	0.027590	-0.459134	-0.291820	0.754852	-0.710819	-0.269817	0.697357	-0.708053	-0.207961	0.715558	-0.698635	-0.222523	0.773476	-0.701234	-0.338159	0.345196	-0.693203	-0.359565	0.311206	-0.689593	-0.303021	0.284848	-0.681227	-0.288246	0.326139	-0.686633	-0.472352	0.112429	-0.632085	-0.340197	0.036171	-0.686050	-0.303784	0.035934	-0.620364	-0.280595	0.027517	-0.624111	
3	0.0150	-0.000000	0.000000	-0.000000	-0.291664	1.401893	-0.703185	-0.300298	1.376956	-0.361132	-0.227250	1.355917	-0.533378	-0.217027	0.953754	-0.420216	-0.218432	0.957488	-0.652518	-0.270067	1.000617	-0.393432	-0.275230	1.002112	-0.675904	-0.379204	0.986271	-0.475115	-0.378349	0.989403	-0.589561	-0.383838	0.991478	-0.531508	-0.307501	0.745348	-0.373712	-0.279931	0.691756	-0.371396	-0.221104	0.717054	-0.363509	-0.240452	0.775389	-0.364719	-0.320058	0.347653	-0.373176	-0.339353	0.310287	-0.383607	-0.282511	0.290841	-0.391507	-0.267306	0.328118	-0.385832	-0.440334	0.129321	-0.436007	-0.308737	0.033261	-0.392171	-0.288404	0.037049	-0.461402	-0.262973	0.027580	-0.458911	-0.291808	0.764021	-0.711330	-0.270250	0.706361	-0.708815	-0.208216	0.724054	-0.699546	-0.222331	0.782069	-0.701961	-0.339704	0.351838	-0.694431	-0.360446	0.317472	-0.690597	-0.303355	0.292085	-0.683088	-0.289387	0.333623	-0.688638	-0.467983	0.118001	-0.632958	-0.338785	0.036932	-0.686401	-0.303475	0.035929	-0.620429	-0.280727	0.027557	-0.624173	
4	0.0200	-0.000000	0.000000	-0.000000	-0.292285	1.410805	-0.702855	-0.301193	1.386395	-0.361626	-0.228008	1.365180	-0.533483	-0.215668	0.962568	-0.420752	-0.217050	0.966331	-0.652232	-0.268134	1.009749	-0.393643	-0.273404	1.011236	-0.675778	-0.377351	0.995422	-0.475083	-0.376597	0.998556	-0.589685	-0.382052	1.000436	-0.531630	-0.307780	0.754141	-0.373505	-0.280734	0.700329	-0.370928	-0.221718	0.725115	-0.362960	-0.240524	0.783623	-0.364410	-0.321072	0.353885	-0.372172	-0.339709	0.316154	-0.382539	-0.282406	0.297610	-0.389959	-0.267928	0.335217	-0.384461	-0.436183	0.134267	-0.435454	-0.307540	0.033798	-0.392203	-0.287786	0.037176	-0.461253	-0.263092	0.027589	-0.458649	-0.291869	0.773166	-0.711801	-0.270768	0.715343	-0.709555	-0.208542	0.732514	-0.700504	-0.222205	0.790631	-0.702720	-0.341211	0.358452	-0.695598	-0.361264	0.323703	-0.691561	-0.303629	0.299319	-0.684933	-0.290491	0.341105	-0.690594	-0.463487	0.123554	-0.633799	-0.337326	0.037703	-0.686750	-0.303101	0.035975	-0.620524	-0.280803	0.027601	-0.624259	
5	0.0250	-0.000000	0.000000	-0.000000	-0.292899	1.419607	-0.702497	-0.302065	1.395741	-0.362141	-0.228778	1.374327	-0.533577	-0.214333	0.971283	-0.421291	-0.215650	0.975082	-0.651901	-0.266251	1.018821	-0.393912	-0.271513	1.020332	-0.675661	-0.375474	1.004577	-0.475099	-0.374767	1.007706	-0.589837	-0.380210	1.009414	-0.531783	-0.308123	0.762894	-0.373296	-0.281572	0.708819	-0.370498	-0.222375	0.733109	-0.362403	-0.240640	0.791788	-0.364083	-0.322046	0.360068	-0.371331	-0.339951	0.321949	-0.381648	-0.282191	0.304380	-0.388459	-0.268561	0.342313	-0.383054	-0.431694	0.139244	-0.435011	-0.306220	0.034415	-0.392228	-0.287013	0.037424	-0.461035	-0.263082	0.027632	-0.458294	-0.292142	0.782278	-0.712157	-0.271528	0.724251	-0.710212	-0.209082	0.740892	-0.701605	-0.222258	0.799105	-0.703586	-0.342599	0.364972	-0.696621	-0.361905	0.329842	-0.692426	-0.303714	0.306546	-0.686734	-0.291481	0.348607	-0.692461	-0.458624	0.129081	-0.634566	-0.335735	0.038522	-0.687145	-0.302590	0.036123	-0.620689	-0.280759	0.027671	-0.624421	
6	0.0300	-0.000000	0.000000	-0.000000	-0.293504	1.428280	-0.702136	-0.302935	1.404960	-0.362667	-0.229553	1.383342	-0.533665	-0.213026	0.979867	-0.421821	-0.214243	0.983689	-0.651556	-0.264422	1.027829	-0.394232	-0.269559	1.029365	-0.675557	-0.373580	1.013685	-0.475171	-0.372885	1.016811	-0.590022	-0.378351	1.018374	-0.531939	-0.308521	0.771560	-0.373113	-0.282423	0.717236	-0.370155	-0.223053	0.741011	-0.361881	-0.240777	0.799855	-0.363766	-0.322979	0.366158	-0.370634	-0.340087	0.327653	-0.380850	-0.281901	0.311135	-0.387031	-0.269190	0.349373	-0.381646	-0.426945	0.144310	-0.434682	-0.304776	0.035140	-0.392242	-0.286050	0.037855	-0.460732	-0.262891	0.027753	-0.457864	-0.292596	0.791319	-0.712405	-0.272494	0.733080	-0.710785	-0.209805	0.749166	-0.702824	-0.222473	0.807488	-0.704536	-0.343892	0.371416	-0.697491	-0.362384	0.335876	-0.693187	-0.303639	0.313773	-0.688471	-0.292379	0.356098	-0.694181	-0.453465	0.134581	-0.635285	-0.333997	0.039411	-0.687554	-0.301844	0.036446	-0.620930	-0.280520	0.027779	-0.624655	
7	0.0350	-0.000000	0.000000	-0.000000	-0.294095	1.436794	-0.701769	-0.303776	1.414028	-0.363219	-0.230330	1.392192	-0.533744	-0.211751	0.988286	-0.422339	-0.212831	0.992107	-0.651197	-0.262655	1.036723	-0.394599	-0.267547	1.038302	-0.675456	-0.371670	1.022712	-0.475309	-0.370952	1.025846	-0.590235	-0.376461	1.027280	-0.532126	-0.308947	0.780104	-0.372982	-0.283273	0.725531	-0.369893	-0.223747	0.748799	-0.361388	-0.240933	0.807801	-0.363462	-0.323867	0.372139	-0.370123	-0.340107	0.333234	-0.380228	-0.281534	0.317841	-0.385681	-0.269808	0.356363	-0.380286	-0.421925	0.149436	-0.434378	-0.303190	0.036037	-0.392225	-0.284829	0.038514	-0.460331	-0.262466	0.027953	-0.457364	-0.293239	0.800265	-0.712527	-0.273672	0.741802	-0.711261	-0.210725	0.757316	-0.704151	-0.222868	0.815752	-0.705561	-0.345080	0.377748	-0.698178	-0.362694	0.341774	-0.693827	-0.303407	0.320955	-0.690119	-0.293186	0.363551	-0.695724	-0.448022	0.140073	-0.636012	-0.332082	0.040442	-0.687990	-0.300767	0.037020	-0.621256	-0.280000	0.027948	-0.624977	
